<?xml version="1.0" encoding="UTF-8"?>
<svg version="1.1" xmlns="http://www.w3.org/2000/svg" width="64" height="64">
<path d="M0 0 C15.84 0 31.68 0 48 0 C48 9.9 48 19.8 48 30 C32.16 30 16.32 30 0 30 C0 20.1 0 10.2 0 0 Z M4 4 C4 11.26 4 18.52 4 26 C17.2 26 30.4 26 44 26 C44 18.74 44 11.48 44 4 C30.8 4 17.6 4 4 4 Z " fill="#C799DD" transform="translate(8,7)"/>
<path d="M0 0 C17.16 0 34.32 0 52 0 C52.495 3.96 52.495 3.96 53 8 C35.18 8 17.36 8 -1 8 C-0.67 5.36 -0.34 2.72 0 0 Z M7 3 C7 3.66 7 4.32 7 5 C7.99 5 8.98 5 10 5 C10 4.34 10 3.68 10 3 C9.01 3 8.02 3 7 3 Z M14 3 C14 3.66 14 4.32 14 5 C14.99 5 15.98 5 17 5 C17 4.34 17 3.68 17 3 C16.01 3 15.02 3 14 3 Z M21 3 C21 3.66 21 4.32 21 5 C21.99 5 22.98 5 24 5 C24 4.34 24 3.68 24 3 C23.01 3 22.02 3 21 3 Z M28 3 C28 3.66 28 4.32 28 5 C28.99 5 29.98 5 31 5 C31 4.34 31 3.68 31 3 C30.01 3 29.02 3 28 3 Z M35 3 C35 3.66 35 4.32 35 5 C35.99 5 36.98 5 38 5 C38 4.34 38 3.68 38 3 C37.01 3 36.02 3 35 3 Z M42 3 C42 3.66 42 4.32 42 5 C42.99 5 43.98 5 45 5 C45 4.34 45 3.68 45 3 C44.01 3 43.02 3 42 3 Z " fill="#C698DC" transform="translate(6,50)"/>
<path d="M0 0 C2.31 0 4.62 0 7 0 C7.33 1.32 7.66 2.64 8 4 C8.763125 3.9175 9.52625 3.835 10.3125 3.75 C11.6428125 3.87375 11.6428125 3.87375 13 4 C13.99 5.32 14.98 6.64 16 8 C8.08 8 0.16 8 -8 8 C-6.68 6.68 -5.36 5.36 -4 4 C-2.68 4 -1.36 4 0 4 C0 2.68 0 1.36 0 0 Z " fill="#C799DD" transform="translate(28,39)"/>
</svg>
